<svg width="24" height="24" viewBox="0 0 24 24" fill="none" xmlns="http://www.w3.org/2000/svg">
<path d="M1.99658 21.962V3.9931C1.99658 3.44405 2.19224 2.97419 2.58357 2.58354C2.97489 2.19288 3.44474 1.99722 3.99313 1.99655H19.9655C20.5145 1.99655 20.9847 2.19221 21.376 2.58354C21.7674 2.97486 21.9627 3.44471 21.962 3.9931V15.9724C21.962 16.5214 21.7667 16.9916 21.376 17.3829C20.9854 17.7742 20.5152 17.9696 19.9655 17.9689H5.98967L1.99658 21.962ZM11.9793 14.9741C12.2621 14.9741 12.4994 14.8783 12.6911 14.6866C12.8827 14.4949 12.9782 14.258 12.9776 13.9758C12.9769 13.6936 12.8811 13.4567 12.6901 13.265C12.4991 13.0734 12.2621 12.9775 11.9793 12.9775C11.6965 12.9775 11.4595 13.0734 11.2685 13.265C11.0775 13.4567 10.9817 13.6936 10.981 13.9758C10.9804 14.258 11.0762 14.4953 11.2685 14.6876C11.4609 14.8799 11.6978 14.9754 11.9793 14.9741ZM10.981 10.981H12.9776V4.99137H10.981V10.981Z" fill="white"/>
</svg>
