<svg width="24" height="24" viewBox="0 0 24 24" fill="none" xmlns="http://www.w3.org/2000/svg">
<path d="M11.9294 17.9689C12.2788 17.9689 12.5743 17.8481 12.8159 17.6065C13.0574 17.3649 13.1779 17.0698 13.1772 16.7211C13.1766 16.3723 13.0561 16.0768 12.8159 15.8346C12.5756 15.5923 12.2801 15.4719 11.9294 15.4732C11.5787 15.4745 11.2835 15.5953 11.0439 15.8356C10.8043 16.0758 10.6835 16.371 10.6816 16.7211C10.6796 17.0711 10.8003 17.3666 11.0439 17.6075C11.2875 17.8484 11.5827 17.9689 11.9294 17.9689ZM11.0309 14.1255H12.8778C12.8778 13.5765 12.9403 13.1439 13.0654 12.8278C13.1905 12.5117 13.5439 12.0791 14.1256 11.53C14.5582 11.0975 14.8993 10.6855 15.1488 10.2942C15.3984 9.90286 15.5232 9.433 15.5232 8.88462C15.5232 7.9529 15.1821 7.23747 14.4999 6.73834C13.8178 6.2392 13.0109 5.98963 12.0791 5.98963C11.1308 5.98963 10.3614 6.2392 9.77113 6.73834C9.18082 7.23747 8.76886 7.83643 8.53527 8.53523L10.1824 9.1841C10.2656 8.88462 10.4529 8.56018 10.7444 8.21079C11.0359 7.86139 11.4808 7.68669 12.0791 7.68669C12.6115 7.68669 13.0109 7.83244 13.2771 8.12394C13.5433 8.41543 13.6764 8.73555 13.6764 9.08428C13.6764 9.41703 13.5765 9.72916 13.3769 10.0207C13.1772 10.3121 12.9277 10.5823 12.6282 10.8313C11.8961 11.4801 11.4469 11.9709 11.2805 12.3037C11.1141 12.6365 11.0309 13.2437 11.0309 14.1255ZM11.9793 21.962C10.5984 21.962 9.30061 21.7001 8.08604 21.1763C6.87148 20.6526 5.81498 19.9412 4.91653 19.042C4.01808 18.1429 3.30698 17.0864 2.78322 15.8725C2.25946 14.6586 1.99725 13.3609 1.99658 11.9793C1.99592 10.5977 2.25813 9.2999 2.78322 8.086C3.30831 6.8721 4.01942 5.8156 4.91653 4.91649C5.81364 4.01738 6.87015 3.30627 8.08604 2.78318C9.30194 2.26009 10.5997 1.99787 11.9793 1.99654C13.3589 1.99521 14.6567 2.25742 15.8726 2.78318C17.0885 3.30894 18.145 4.02004 19.0421 4.91649C19.9392 5.81294 20.6506 6.86944 21.1764 8.086C21.7021 9.30256 21.964 10.6003 21.962 11.9793C21.96 13.3582 21.6978 14.656 21.1754 15.8725C20.653 17.0891 19.9419 18.1456 19.0421 19.042C18.1423 19.9385 17.0858 20.6499 15.8726 21.1763C14.6593 21.7028 13.3616 21.9646 11.9793 21.962Z" fill="white"/>
</svg>
