<svg width="24" height="24" viewBox="0 0 24 24" fill="none" xmlns="http://www.w3.org/2000/svg">
<path d="M17.3409 19.7928L20.176 17.0016L19.5511 16.3757L17.3409 18.5549L16.3876 17.5816L15.7617 18.2125L17.3409 19.7928ZM6.75826 8.71593H17.2022V7.71766H6.75726L6.75826 8.71593ZM17.9689 22.0778C16.8568 22.0778 15.9134 21.6901 15.1388 20.9148C14.3634 20.1402 13.9758 19.1968 13.9758 18.0847C13.9758 16.9726 14.3634 16.0289 15.1388 15.2536C15.9141 14.4783 16.8574 14.091 17.9689 14.0916C19.0803 14.0923 20.024 14.4796 20.8 15.2536C21.5759 16.0276 21.9633 16.9713 21.9619 18.0847C21.9619 19.1961 21.5746 20.1395 20.8 20.9148C20.024 21.6901 19.0803 22.0778 17.9689 22.0778ZM3.99304 20.7331V3.9931H19.9654V11.54C19.3718 11.345 18.7635 11.2449 18.1406 11.2396C17.5176 11.2342 16.9037 11.3144 16.2987 11.4801H6.75726V12.4784H14.0566C13.5562 12.8252 13.1149 13.2321 12.7329 13.6993C12.3509 14.1665 12.0361 14.6809 11.7886 15.2426H6.75826V16.2409H11.4601C11.3882 16.5098 11.3323 16.781 11.2924 17.0545C11.2525 17.328 11.2322 17.6135 11.2315 17.911C11.2315 18.3669 11.2791 18.8191 11.3743 19.2677C11.4694 19.7162 11.6125 20.1485 11.8035 20.5644L11.7696 20.5984L10.6365 19.7738L9.29287 20.7331L7.9492 19.7738L6.60552 20.7331L5.26085 19.7738L3.99304 20.7331Z" fill="white"/>
</svg>
