<svg width="24" height="24" viewBox="0 0 24 24" fill="none" xmlns="http://www.w3.org/2000/svg">
<path d="M21.9241 2.99023H1.99316V8.96952H2.98971V19.9315C2.98971 20.4601 3.1997 20.9671 3.57348 21.3409C3.94725 21.7147 4.45421 21.9246 4.98281 21.9246H18.9345C19.4631 21.9246 19.97 21.7147 20.3438 21.3409C20.7176 20.9671 20.9276 20.4601 20.9276 19.9315V8.96952H21.9241V2.99023ZM3.98626 4.98333H19.931V6.97643H3.98626V4.98333ZM18.9345 19.9315H4.98281V8.96952H18.9345V19.9315ZM8.969 10.9626H14.9483C14.9483 11.4912 14.7383 11.9982 14.3645 12.3719C13.9907 12.7457 13.4838 12.9557 12.9552 12.9557H10.9621C10.4335 12.9557 9.92654 12.7457 9.55276 12.3719C9.17899 11.9982 8.969 11.4912 8.969 10.9626Z" fill="white"/>
</svg>
