<svg width="24" height="24" viewBox="0 0 24 24" fill="none" xmlns="http://www.w3.org/2000/svg">
<path d="M2.12727 13.6064C1.94959 12.5289 1.94993 11.4295 2.12827 10.3521C3.22737 10.378 4.21666 9.85095 4.60099 8.92355C4.98533 7.99516 4.65889 6.92401 3.86227 6.16532C4.49839 5.27684 5.27607 4.49882 6.16429 3.86231C6.92297 4.65893 7.99512 4.98537 8.92251 4.60103C9.8509 4.2167 10.378 3.22741 10.351 2.12831C11.4289 1.95019 12.5286 1.95019 13.6064 2.12831C13.5805 3.22841 14.1075 4.2167 15.0349 4.60103C15.9633 4.98537 17.0345 4.65893 17.7932 3.86231C18.6816 4.49843 19.4597 5.27611 20.0962 6.16433C19.2996 6.92301 18.9731 7.99516 19.3575 8.92355C19.7418 9.85194 20.7311 10.379 21.8302 10.3511C22.0084 11.4292 22.0084 12.5293 21.8302 13.6074C20.7301 13.5805 19.7418 14.1076 19.3575 15.035C18.9731 15.9634 19.2996 17.0355 20.0962 17.7942C19.46 18.6823 18.6823 19.46 17.7942 20.0962C17.0355 19.2996 15.9633 18.9732 15.0349 19.3575C14.1065 19.7418 13.5795 20.7311 13.6074 21.8312C12.5292 22.0091 11.4291 22.0088 10.351 21.8302C10.378 20.7311 9.84991 19.7418 8.92351 19.3575C7.99512 18.9732 6.92297 19.2996 6.16429 20.0962C5.27615 19.46 4.49847 18.6823 3.86227 17.7942C4.65889 17.0355 4.98533 15.9634 4.60099 15.036C4.21666 14.1076 3.22737 13.5795 2.12727 13.6064ZM11.9792 14.9741C12.7735 14.9741 13.5352 14.6586 14.0969 14.0969C14.6585 13.5353 14.974 12.7735 14.974 11.9793C14.974 11.185 14.6585 10.4232 14.0969 9.86161C13.5352 9.29997 12.7735 8.98445 11.9792 8.98445C11.1849 8.98445 10.4232 9.29997 9.86157 9.86161C9.29993 10.4232 8.9844 11.185 8.9844 11.9793C8.9844 12.7735 9.29993 13.5353 9.86157 14.0969C10.4232 14.6586 11.1849 14.9741 11.9792 14.9741Z" fill="white"/>
</svg>
